<?xml version="1.0" encoding="UTF-8" standalone="no"?>
<!DOCTYPE svg PUBLIC "-//W3C//DTD SVG 1.1//EN"
 "http://www.w3.org/Graphics/SVG/1.1/DTD/svg11.dtd">
<!-- Generated by graphviz version 2.40.1 (20161225.0304)
 -->
<!-- Title: gocallvis Pages: 1 -->
<svg width="371pt" height="227pt"
 viewBox="0.00 0.00 370.73 226.80" xmlns="http://www.w3.org/2000/svg" xmlns:xlink="http://www.w3.org/1999/xlink">
<g id="graph0" class="graph" transform="scale(1 1) rotate(0) translate(0 226.8)">
<title>gocallvis</title>
<polygon fill="#d3d3d3" stroke="transparent" points="0,0 0,-226.8 370.7278,-226.8 370.7278,0 0,0"/>
<text text-anchor="middle" x="185.3639" y="-8.2" font-family="Arial" font-size="14.00" fill="#000000">github.com/DHBW&#45;SE&#45;2023/yaac&#45;go&#45;prototype/cmd/yaac</text>
<g id="clust1" class="cluster">
<title>cluster_focus</title>
<polygon fill="#e6ecfa" stroke="#000000" stroke-width=".5" points="19.3607,-32.8 19.3607,-218.8 351.3671,-218.8 351.3671,-32.8 19.3607,-32.8"/>
<text text-anchor="middle" x="185.3639" y="-198.6" font-family="Arial" font-size="18.00" fill="#000000">main</text>
</g>
<g id="clust2" class="cluster">
<title>cluster_github.com/DHBW&#45;SE&#45;2023/yaac&#45;go&#45;prototype/internal/mvvm</title>
<g id="a_clust2"><a xlink:href="/?f=github.com/DHBW-SE-2023/yaac-go-prototype/internal/mvvm" xlink:title="package: github.com/DHBW&#45;SE&#45;2023/yaac&#45;go&#45;prototype/internal/mvvm">
<polygon fill="#ffffe0" stroke="#000000" stroke-width=".8" points="146.3607,-40.8 146.3607,-180.8 343.3671,-180.8 343.3671,-40.8 146.3607,-40.8"/>
<text text-anchor="middle" x="244.8639" y="-162.4" font-family="Tahoma bold" font-size="16.00" fill="#000000">yaac_mvvm</text>
</a>
</g>
</g>
<!-- github.com/DHBW&#45;SE&#45;2023/yaac&#45;go&#45;prototype/cmd/yaac.main -->
<g id="node1" class="node">
<title>github.com/DHBW&#45;SE&#45;2023/yaac&#45;go&#45;prototype/cmd/yaac.main</title>
<g id="a_node1"><a xlink:title="github.com/DHBW&#45;SE&#45;2023/yaac&#45;go&#45;prototype/cmd/yaac.main | defined in main.go:7&#10;at main.go:8: calling [github.com/DHBW&#45;SE&#45;2023/yaac&#45;go&#45;prototype/internal/mvvm.New]&#10;at main.go:9: calling [(*github.com/DHBW&#45;SE&#45;2023/yaac&#45;go&#45;prototype/internal/mvvm.MVVM).OpenMainWindow]">
<path fill="#add8e6" stroke="#000000" stroke-width=".5" d="M69.3607,-105.8C69.3607,-105.8 39.3607,-105.8 39.3607,-105.8 33.3607,-105.8 27.3607,-99.8 27.3607,-93.8 27.3607,-93.8 27.3607,-81.8 27.3607,-81.8 27.3607,-75.8 33.3607,-69.8 39.3607,-69.8 39.3607,-69.8 69.3607,-69.8 69.3607,-69.8 75.3607,-69.8 81.3607,-75.8 81.3607,-81.8 81.3607,-81.8 81.3607,-93.8 81.3607,-93.8 81.3607,-99.8 75.3607,-105.8 69.3607,-105.8"/>
<text text-anchor="middle" x="54.3607" y="-83.6" font-family="Verdana" font-size="14.00" fill="#000000">main</text>
</a>
</g>
</g>
<!-- github.com/DHBW&#45;SE&#45;2023/yaac&#45;go&#45;prototype/internal/mvvm.New -->
<g id="node2" class="node">
<title>github.com/DHBW&#45;SE&#45;2023/yaac&#45;go&#45;prototype/internal/mvvm.New</title>
<g id="a_node2"><a xlink:title="github.com/DHBW&#45;SE&#45;2023/yaac&#45;go&#45;prototype/internal/mvvm.New | defined in mvvm.go:5">
<path fill="#ffe4b5" stroke="#000000" stroke-width="1.5" d="M259.8639,-84.8C259.8639,-84.8 229.8639,-84.8 229.8639,-84.8 223.8639,-84.8 217.8639,-78.8 217.8639,-72.8 217.8639,-72.8 217.8639,-60.8 217.8639,-60.8 217.8639,-54.8 223.8639,-48.8 229.8639,-48.8 229.8639,-48.8 259.8639,-48.8 259.8639,-48.8 265.8639,-48.8 271.8639,-54.8 271.8639,-60.8 271.8639,-60.8 271.8639,-72.8 271.8639,-72.8 271.8639,-78.8 265.8639,-84.8 259.8639,-84.8"/>
<text text-anchor="middle" x="244.8639" y="-62.6" font-family="Verdana" font-size="14.00" fill="#000000">New</text>
</a>
</g>
</g>
<!-- github.com/DHBW&#45;SE&#45;2023/yaac&#45;go&#45;prototype/cmd/yaac.main&#45;&gt;github.com/DHBW&#45;SE&#45;2023/yaac&#45;go&#45;prototype/internal/mvvm.New -->
<g id="edge1" class="edge">
<title>github.com/DHBW&#45;SE&#45;2023/yaac&#45;go&#45;prototype/cmd/yaac.main&#45;&gt;github.com/DHBW&#45;SE&#45;2023/yaac&#45;go&#45;prototype/internal/mvvm.New</title>
<g id="a_edge1"><a xlink:title="at main.go:8: calling [github.com/DHBW&#45;SE&#45;2023/yaac&#45;go&#45;prototype/internal/mvvm.New]">
<path fill="none" stroke="#8b4513" d="M81.6552,-84.7912C114.6161,-81.1578 170.2305,-75.0272 207.2428,-70.9471"/>
<polygon fill="#8b4513" stroke="#8b4513" points="208.0638,-74.3779 217.6201,-69.8032 207.2968,-67.4201 208.0638,-74.3779"/>
</a>
</g>
</g>
<!-- (*github.com/DHBW&#45;SE&#45;2023/yaac&#45;go&#45;prototype/internal/mvvm.MVVM).OpenMainWindow -->
<g id="node3" class="node">
<title>(*github.com/DHBW&#45;SE&#45;2023/yaac&#45;go&#45;prototype/internal/mvvm.MVVM).OpenMainWindow</title>
<g id="a_node3"><a xlink:title="(*github.com/DHBW&#45;SE&#45;2023/yaac&#45;go&#45;prototype/internal/mvvm.MVVM).OpenMainWindow | defined in mainwindow.go:5">
<path fill="#ffe4b5" stroke="#000000" stroke-width="1.5" d="M323.3703,-145.8C323.3703,-145.8 166.3575,-145.8 166.3575,-145.8 160.3575,-145.8 154.3575,-139.8 154.3575,-133.8 154.3575,-133.8 154.3575,-121.8 154.3575,-121.8 154.3575,-115.8 160.3575,-109.8 166.3575,-109.8 166.3575,-109.8 323.3703,-109.8 323.3703,-109.8 329.3703,-109.8 335.3703,-115.8 335.3703,-121.8 335.3703,-121.8 335.3703,-133.8 335.3703,-133.8 335.3703,-139.8 329.3703,-145.8 323.3703,-145.8"/>
<text text-anchor="middle" x="244.8639" y="-123.6" font-family="Verdana" font-size="14.00" fill="#000000">(*MVVM).OpenMainWindow</text>
</a>
</g>
</g>
<!-- github.com/DHBW&#45;SE&#45;2023/yaac&#45;go&#45;prototype/cmd/yaac.main&#45;&gt;(*github.com/DHBW&#45;SE&#45;2023/yaac&#45;go&#45;prototype/internal/mvvm.MVVM).OpenMainWindow -->
<g id="edge2" class="edge">
<title>github.com/DHBW&#45;SE&#45;2023/yaac&#45;go&#45;prototype/cmd/yaac.main&#45;&gt;(*github.com/DHBW&#45;SE&#45;2023/yaac&#45;go&#45;prototype/internal/mvvm.MVVM).OpenMainWindow</title>
<g id="a_edge2"><a xlink:title="at main.go:9: calling [(*github.com/DHBW&#45;SE&#45;2023/yaac&#45;go&#45;prototype/internal/mvvm.MVVM).OpenMainWindow]">
<path fill="none" stroke="#8b4513" d="M81.6552,-93.531C99.6387,-97.307 124.3657,-102.499 149.1357,-107.6999"/>
<polygon fill="#8b4513" stroke="#8b4513" points="148.4806,-111.1386 158.9865,-109.7683 149.9191,-104.288 148.4806,-111.1386"/>
</a>
</g>
</g>
</g>
</svg>
